<?xml version="1.0" encoding="UTF-8"?>
<svg width="196px" height="106px" viewBox="0 0 196 106" version="1.1" xmlns="http://www.w3.org/2000/svg" xmlns:xlink="http://www.w3.org/1999/xlink">
    <!-- Generator: Sketch 61.2 (89653) - https://sketch.com -->
    <title>ES_logo</title>
    <desc>Created with Sketch.</desc>
    <g id="Page-2" stroke="none" stroke-width="1" fill="none" fill-rule="evenodd">
        <g id="ES_logo" fill="#231F20">
            <path d="M15.3115,105.3047 C9.9565,105.3047 5.1495,104.1217 1.7625,101.6027 C1.0545,101.0497 0.7385,100.4207 1.0545,99.2387 L2.3935,94.4327 C2.7875,93.4097 4.2055,92.7007 5.4655,93.2517 C8.2235,94.7487 11.6105,96.0867 15.9425,96.0867 C21.0625,96.0867 25.0025,93.4887 25.0025,89.0757 C24.9235,85.2177 21.2205,82.6177 15.5485,80.1757 C7.5135,77.0257 1.1335,71.8257 0.8965,64.2627 C0.6605,55.2047 8.0655,48.5877 19.3295,48.5877 C25.3945,48.5877 29.8075,50.5557 31.3825,51.5807 C32.3275,52.2097 32.8785,52.7617 32.5635,53.9427 L30.3575,59.1427 C29.5705,60.5597 28.5475,60.8747 27.2855,60.1677 C24.0565,58.2767 21.2995,57.5667 18.8565,57.8037 C14.9195,58.0397 11.1375,60.4027 11.3735,63.9477 C11.4535,66.7837 13.4995,69.1467 18.5405,71.2737 C26.1045,74.4247 35.1645,78.9137 35.3985,88.9967 C35.6355,98.4507 28.8605,105.3047 15.3115,105.3047" id="Fill-1"></path>
            <path d="M70.2241,58.04 C45.5681,58.04 45.5681,95.851 70.2241,95.851 C93.8561,95.851 93.8561,58.04 70.2241,58.04 M70.2241,105.305 C32.2561,105.305 32.2561,48.588 70.2241,48.588 C107.1691,48.588 107.1691,105.305 70.2241,105.305" id="Fill-3"></path>
            <path d="M117.3408,63.2773 L141.5238,83.0483 L141.5238,91.2063 L117.3408,71.0533 L117.3408,63.2773 Z M149.7158,49.4123 L143.8088,49.4123 C142.4698,49.4123 141.5238,50.2013 141.5238,51.2243 L141.5238,70.6803 L116.0018,49.4123 L109.2278,49.4123 C107.8868,49.4123 106.9428,50.2013 106.9428,51.2243 L106.9428,102.7423 C106.9428,103.7673 107.8868,104.5533 109.2278,104.5533 L115.0558,104.5533 C116.3158,104.5533 117.3408,103.7673 117.3408,102.7423 L117.3408,83.8853 L142.7018,104.5533 L149.7158,104.5533 C150.9778,104.5533 152.0008,103.7673 152.0008,102.7423 L152.0008,51.2243 C152.0008,50.2013 150.9778,49.4123 149.7158,49.4123 L149.7158,49.4123 Z" id="Fill-5"></path>
            <path d="M175.0908,105.3047 C169.7358,105.3047 164.9288,104.1217 161.5418,101.6027 C160.8338,101.0497 160.5188,100.4207 160.8338,99.2387 L162.1728,94.4327 C162.5668,93.4097 163.9848,92.7007 165.2438,93.2517 C168.0028,94.7487 171.3898,96.0867 175.7218,96.0867 C180.8418,96.0867 184.7808,93.4887 184.7808,89.0757 C184.7028,85.2177 180.9998,82.6177 175.3268,80.1757 C167.2928,77.0257 160.9118,71.8257 160.6758,64.2627 C160.4398,55.2047 167.8448,48.5877 179.1098,48.5877 C185.1738,48.5877 189.5868,50.5557 191.1618,51.5807 C192.1068,52.2097 192.6578,52.7617 192.3428,53.9427 L190.1368,59.1427 C189.3498,60.5597 188.3258,60.8747 187.0648,60.1677 C183.8348,58.2767 181.0788,57.5667 178.6358,57.8037 C174.6978,58.0397 170.9168,60.4027 171.1528,63.9477 C171.2328,66.7837 173.2788,69.1467 178.3198,71.2737 C185.8838,74.4247 194.9438,78.9137 195.1778,88.9967 C195.4148,98.4507 188.6398,105.3047 175.0908,105.3047" id="Fill-7"></path>
            <path d="M22.9692,27.3418 C23.7592,27.3458 24.3142,27.7208 24.3112121,28.4178 L24.2942,31.7618 C24.2902,32.3648 23.7312,32.8268 22.9412,32.8218402 L3.1082,32.7198 C2.3182,32.7158 1.7632,32.2488 1.7661879,31.6448 L1.9232,1.2678 C1.9262,0.6648 2.4862,0.2028 3.2762,0.2077598 L22.7372,0.3078 C23.4802,0.3118 24.0822,0.7798 24.0792,1.3828 L24.0612,4.8208 C24.0572,5.5168 23.4512,5.8848 22.7082,5.8808 L8.0312,5.8048 L7.9982,12.2618 L21.7932,12.3328 C22.5362,12.3368 23.1372,12.8038 23.1352,13.4078 L23.1182,16.5668 C23.1152,17.2628 22.5082,17.6778 21.7652,17.6748 L7.9702,17.6028 L7.9202,27.2638 L22.9692,27.3418 Z" id="Fill-9"></path>
            <path d="M60.7793,26.7939 C59.5333,25.3009 58.2873,23.7149 57.0413,22.2689 L57.0873,22.2699 C56.3473,21.5689 56.9573,20.4569 58.0263,20.4619 L62.3913,20.4849 C62.7163,20.4869 63.1333,20.7679 63.4573,20.9549 C63.7803,21.3749 64.0583,21.6079 64.3813,21.9819 L65.1663,22.8689 C69.7083,15.9249 64.8373,5.6339 56.3833,5.5897162 C41.8913,5.5159 41.7763,27.8109 56.2683,27.8850629 C57.8933,27.8939 59.4283,27.5299 60.7793,26.7939 M68.9973,27.5799 L72.3213,31.4989 C73.0603,32.2919 72.3583,33.3099 71.3833,33.3049 L67.0163,33.2819 C66.6913,33.2809 66.1813,33.1379 66.0433,32.9059 L64.6593,31.2269 C62.2823,32.5609 59.3513,33.4749 56.2403,33.4591068 C33.7133,33.3419 33.8853,-0.1001 56.4123,0.0165937134 C70.9503,0.0919 77.7393,16.7089 68.9973,27.5799" id="Fill-11"></path>
            <path d="M107.6338,19.604 L107.7258,1.814 C107.7298,1.211 108.2418,0.749 109.0318,0.753 L112.7008,0.772 C113.3978,0.775 113.9528,1.243 113.948821,1.846 L113.8588,19.497 C113.8068,29.529 108.6758,33.729 101.1988,33.690269 C94.5568,33.656 89.1438,29.495 89.1958,19.509 L89.2878,1.719 C89.2908,1.116 89.8968,0.654 90.6398,0.657974223 L94.2158,0.677 C95.0058,0.681 95.5598,1.148 95.5568,1.751 L95.4658,19.541 C95.4428,24 97.0468,28.003 101.2288,28.024 C105.9188,28.049 107.6078,24.853 107.6338,19.604" id="Fill-13"></path>
            <path d="M139.4014,20.0464 L148.2734,20.0924 L144.1554,7.9474 L139.4014,20.0464 Z M150.1954,25.5374 L137.2834,25.4704 L134.6464,32.3774 C134.3184,32.8864 133.7584,33.3944 133.2014,33.3914 L129.8104,33.3744 C128.7424,33.3684 128.1884,32.6684 128.5174,31.8814 L140.5174,1.9374 C140.8444,1.4284 141.4514,0.9204 141.9624,0.922394114 L146.5134,0.9464 C146.9314,0.9484 147.6724,1.3234 147.8104,1.6494 L158.8014,32.0844 C159.1234,32.8744 158.4224,33.5214 157.4934,33.5164288 L154.0094,33.4984 C153.5914,33.4964 152.8504,33.1214 152.7134,32.7954 L150.1954,25.5374 Z" id="Fill-15"></path>
            <path d="M194.0977,32.6377 C194.0947,33.2417 193.5347,33.7027 192.7437,33.6987258 L174.9547,33.6067 C174.2577,33.6027 173.7037,33.1357 173.706688,32.5327 L173.8637,2.1557 C173.8677,1.5517 174.2407,1.0897 174.9377,1.09367422 L178.8847,1.1137 C179.6747,1.1177 179.9977,1.5837 179.9937,2.1867 L179.8607,28.1977 L192.7727,28.2647 C193.5627,28.2687 194.1187,28.6427 194.114721,29.3397 L194.0977,32.6377 Z" id="Fill-17"></path>
        </g>
    </g>
</svg>